<?xml version="1.0" encoding="UTF-8" standalone="no"?>
<!DOCTYPE svg PUBLIC "-//W3C//DTD SVG 1.1//EN" "http://www.w3.org/Graphics/SVG/1.1/DTD/svg11.dtd">
<svg width="100%" height="100%" viewBox="0 0 28 28" version="1.1" xmlns="http://www.w3.org/2000/svg" xmlns:xlink="http://www.w3.org/1999/xlink" xml:space="preserve" xmlns:serif="http://www.serif.com/" style="fill-rule:evenodd;clip-rule:evenodd;stroke-linejoin:round;stroke-miterlimit:2;">
    <path d="M11.995,11.18L11.995,3.929C11.995,3.435 11.594,3.034 11.1,3.034L3.849,3.034C3.354,3.034 2.953,3.435 2.953,3.929L2.953,11.18C2.953,11.675 3.354,12.075 3.849,12.075L10.204,12.075L10.204,14C10.204,14.362 10.423,14.688 10.757,14.827C11.092,14.966 11.477,14.889 11.733,14.633L14.768,11.598C15.117,11.248 15.117,10.681 14.768,10.332C14.419,9.982 13.851,9.982 13.502,10.332L11.995,11.839C11.995,11.839 11.995,11.18 11.995,11.18ZM10.204,4.824L10.204,10.285C10.204,10.285 4.744,10.285 4.744,10.285C4.744,10.285 4.744,4.824 4.744,4.824L10.204,4.824Z"/>
    <g transform="matrix(0.0214844,0,0,0.0214844,5.52979,6.08301)">
        <path d="M128.625,46C128.625,37.371 121.629,30.375 113,30.375L68,30.375C59.371,30.375 52.375,37.371 52.375,46L52.375,91C52.375,99.629 59.371,106.625 68,106.625L113,106.625C121.629,106.625 128.625,99.629 128.625,91L128.625,46ZM97.375,61.625L97.375,75.375C97.375,75.375 83.625,75.375 83.625,75.375C83.625,75.375 83.625,61.625 83.625,61.625L97.375,61.625Z"/>
    </g>
    <g transform="matrix(0.0214844,0,0,0.0214844,5.52979,18.9736)">
        <path d="M128.625,46C128.625,37.371 121.629,30.375 113,30.375L68,30.375C59.371,30.375 52.375,37.371 52.375,46L52.375,91C52.375,99.629 59.371,106.625 68,106.625L113,106.625C121.629,106.625 128.625,99.629 128.625,91L128.625,46ZM97.375,61.625L97.375,75.375C97.375,75.375 83.625,75.375 83.625,75.375C83.625,75.375 83.625,61.625 83.625,61.625L97.375,61.625Z"/>
    </g>
    <g transform="matrix(0.0214844,0,0,0.0214844,25.0789,22.6752)">
        <path d="M128.625,46C128.625,37.371 121.629,30.375 113,30.375L68,30.375C59.371,30.375 52.375,37.371 52.375,46L52.375,91C52.375,99.629 59.371,106.625 68,106.625L113,106.625C121.629,106.625 128.625,99.629 128.625,91L128.625,46ZM97.375,61.625L97.375,75.375C97.375,75.375 83.625,75.375 83.625,75.375C83.625,75.375 83.625,61.625 83.625,61.625L97.375,61.625Z"/>
    </g>
    <g transform="matrix(0.0214844,0,0,0.0214844,18.5815,6.08301)">
        <path d="M128.625,46C128.625,37.371 121.629,30.375 113,30.375L68,30.375C59.371,30.375 52.375,37.371 52.375,46L52.375,91C52.375,99.629 59.371,106.625 68,106.625L113,106.625C121.629,106.625 128.625,99.629 128.625,91L128.625,46ZM97.375,61.625L97.375,75.375C97.375,75.375 83.625,75.375 83.625,75.375C83.625,75.375 83.625,61.625 83.625,61.625L97.375,61.625Z"/>
    </g>
    <g transform="matrix(0.161133,0,0,0.161133,5.94336,-3.48291)">
        <path d="M62.452,45.714L62.444,46L62.444,91C62.444,94.068 64.932,96.556 68,96.556C70.972,96.556 73.399,94.222 73.548,91.286L73.556,91L73.556,51.556C73.556,51.556 113,51.556 113,51.556C116.068,51.556 118.556,49.068 118.556,46L118.548,45.714C118.399,42.778 115.972,40.444 113,40.444L68,40.444C65.028,40.444 62.601,42.778 62.452,45.714Z"/>
    </g>
    <g transform="matrix(0.161133,0,0,0.161133,11.4219,11.4219)">
        <path d="M-2,84.056L-47,84.056C-47.041,84.056 -47.081,84.055 -47.121,84.054L-47.134,84.054C-47.173,84.053 -47.211,84.052 -47.249,84.05L-47.267,84.049C-47.304,84.047 -47.341,84.045 -47.379,84.043L-47.388,84.042L-47.398,84.041C-47.435,84.039 -47.473,84.036 -47.51,84.032L-47.525,84.031C-47.564,84.027 -47.603,84.023 -47.641,84.019L-47.708,84.011L-47.771,84.002C-47.809,83.997 -47.846,83.992 -47.883,83.986L-47.9,83.983C-47.936,83.977 -47.972,83.971 -48.008,83.964L-48.018,83.963L-48.027,83.961C-48.063,83.954 -48.098,83.947 -48.134,83.94L-48.151,83.936C-48.187,83.928 -48.224,83.92 -48.26,83.912L-48.322,83.897L-48.386,83.881C-48.422,83.872 -48.459,83.862 -48.495,83.852L-48.51,83.848C-48.545,83.838 -48.579,83.828 -48.614,83.817L-48.631,83.812C-48.666,83.801 -48.7,83.791 -48.734,83.779L-48.782,83.764L-48.815,83.752L-48.858,83.737L-48.886,83.727L-48.91,83.718L-48.939,83.707L-48.974,83.695L-49.008,83.681L-49.037,83.67L-49.061,83.66L-49.088,83.65L-49.129,83.633L-49.162,83.619L-49.181,83.611L-49.201,83.602L-49.25,83.581L-49.286,83.565L-49.299,83.559L-49.313,83.553L-49.372,83.525L-49.409,83.508L-49.424,83.5L-49.531,83.447C-49.569,83.427 -49.607,83.407 -49.644,83.387L-49.648,83.385L-49.682,83.366L-49.747,83.33L-49.756,83.325L-49.765,83.32L-49.802,83.298L-49.852,83.269L-49.866,83.26L-49.881,83.251L-49.914,83.23L-49.955,83.205L-49.975,83.192L-49.994,83.18L-50.024,83.161L-50.057,83.139L-50.082,83.122L-50.106,83.107L-50.131,83.089L-50.158,83.071L-50.188,83.05L-50.216,83.031L-50.236,83.016L-50.257,83.001L-50.292,82.975L-50.324,82.952L-50.339,82.94L-50.354,82.929L-50.395,82.897L-50.43,82.871L-50.44,82.862L-50.449,82.855L-50.498,82.816L-50.534,82.787L-50.543,82.779L-50.612,82.721L-50.636,82.701L-50.661,82.678L-50.726,82.621L-50.735,82.612L-50.771,82.58L-50.815,82.539L-50.823,82.531L-50.833,82.521L-50.866,82.489L-50.902,82.455L-50.914,82.443L-50.928,82.428L-50.957,82.399L-50.987,82.369L-51.003,82.352L-51.021,82.333L-51.046,82.307L-51.07,82.282L-51.09,82.259L-51.112,82.235L-51.133,82.213L-51.151,82.192L-51.175,82.165L-51.201,82.136L-51.217,82.117L-51.231,82.101L-51.258,82.068L-51.287,82.034L-51.299,82.019L-51.308,82.008L-51.339,81.969L-51.371,81.93L-51.383,81.914L-51.419,81.867L-51.452,81.824L-51.457,81.817L-51.531,81.716L-51.563,81.67L-51.597,81.62L-51.607,81.606L-51.636,81.562L-51.664,81.519L-51.671,81.509L-51.68,81.494L-51.706,81.454L-51.729,81.417L-51.739,81.401L-51.751,81.381L-51.773,81.345L-51.792,81.313L-51.804,81.291L-51.82,81.265L-51.837,81.234L-51.852,81.207L-51.867,81.18L-51.885,81.148L-51.899,81.122L-51.911,81.1L-51.928,81.067L-51.948,81.029L-51.958,81.008L-51.967,80.992L-51.986,80.952L-52.008,80.909L-52.015,80.893L-52.02,80.882L-52.042,80.835L-52.065,80.786L-52.072,80.771L-52.096,80.714L-52.119,80.662L-52.167,80.545L-52.17,80.537L-52.19,80.486L-52.211,80.43L-52.214,80.422L-52.218,80.41L-52.235,80.363L-52.253,80.314L-52.257,80.3C-52.269,80.267 -52.28,80.233 -52.291,80.2L-52.293,80.192C-52.305,80.155 -52.317,80.117 -52.328,80.079L-52.328,80.078C-52.351,80.001 -52.372,79.923 -52.392,79.844L-52.394,79.835C-52.403,79.798 -52.412,79.761 -52.42,79.724L-52.423,79.71C-52.431,79.674 -52.439,79.637 -52.446,79.6L-52.449,79.586C-52.457,79.549 -52.464,79.512 -52.47,79.474L-52.481,79.415L-52.492,79.346C-52.496,79.316 -52.501,79.285 -52.505,79.254L-52.506,79.242L-52.508,79.23L-52.511,79.208L-52.519,79.138L-52.527,79.068L-52.529,79.045L-52.53,79.033L-52.531,79.021L-52.534,78.998L-52.539,78.927L-52.544,78.857L-52.546,78.834L-52.546,78.822L-52.547,78.809L-52.548,78.786L-52.551,78.715C-52.553,78.683 -52.554,78.651 -52.554,78.62L-52.555,78.608L-52.555,78.596L-52.555,78.572L-52.556,78.5C-52.556,78.5 -52.556,33.5 -52.556,33.5C-52.556,33.5 -52.555,33.428 -52.555,33.428L-52.555,33.404L-52.555,33.392L-52.554,33.38C-52.554,33.349 -52.553,33.317 -52.551,33.285L-52.548,33.214L-52.547,33.191L-52.546,33.178L-52.546,33.166L-52.544,33.143L-52.539,33.071L-52.534,33.002L-52.531,32.979L-52.53,32.967L-52.529,32.955L-52.527,32.932L-52.519,32.862L-52.511,32.792L-52.508,32.77L-52.506,32.758L-52.505,32.746C-52.501,32.715 -52.496,32.684 -52.492,32.654C-52.492,32.654 -52.481,32.585 -52.481,32.585L-52.47,32.526C-52.464,32.489 -52.457,32.451 -52.449,32.414L-52.446,32.4C-52.439,32.363 -52.431,32.326 -52.423,32.29L-52.42,32.276C-52.412,32.239 -52.403,32.202 -52.394,32.165L-52.392,32.156C-52.372,32.077 -52.351,31.999 -52.328,31.922L-52.328,31.921C-52.317,31.883 -52.305,31.845 -52.293,31.808L-52.291,31.8C-52.28,31.767 -52.269,31.733 -52.257,31.7L-52.253,31.686L-52.235,31.637L-52.218,31.59L-52.214,31.578L-52.211,31.57L-52.19,31.514L-52.17,31.463L-52.167,31.455L-52.119,31.338L-52.096,31.286L-52.072,31.229L-52.065,31.214L-52.042,31.165L-52.02,31.118L-52.015,31.107L-52.008,31.091L-51.986,31.048L-51.967,31.008L-51.958,30.992L-51.948,30.971L-51.928,30.933L-51.911,30.9L-51.899,30.878L-51.885,30.852L-51.867,30.82L-51.852,30.793L-51.837,30.766L-51.82,30.735L-51.804,30.709L-51.792,30.687L-51.773,30.655L-51.751,30.619L-51.739,30.599L-51.729,30.583L-51.706,30.546L-51.68,30.506L-51.671,30.491L-51.664,30.481L-51.636,30.438L-51.607,30.394L-51.597,30.38L-51.563,30.33L-51.531,30.284L-51.457,30.183L-51.452,30.176L-51.419,30.133L-51.383,30.086L-51.371,30.07L-51.339,30.031L-51.308,29.992L-51.299,29.981L-51.287,29.966L-51.258,29.932L-51.231,29.899L-51.217,29.883L-51.201,29.864L-51.175,29.835L-51.151,29.808L-51.133,29.787L-51.112,29.765L-51.09,29.741L-51.07,29.718L-51.046,29.693L-51.021,29.667L-51.003,29.648L-50.987,29.631L-50.957,29.601L-50.928,29.572L-50.914,29.557L-50.902,29.545L-50.866,29.511L-50.833,29.479L-50.823,29.469L-50.815,29.461L-50.771,29.42L-50.735,29.388L-50.726,29.379L-50.661,29.322L-50.636,29.299L-50.612,29.279L-50.543,29.221L-50.534,29.213L-50.498,29.184L-50.449,29.145L-50.44,29.138L-50.43,29.129L-50.395,29.103L-50.354,29.071L-50.339,29.06L-50.324,29.048L-50.292,29.025L-50.257,28.999L-50.236,28.984L-50.216,28.969L-50.188,28.95L-50.158,28.929L-50.131,28.911L-50.106,28.893L-50.082,28.878L-50.057,28.861L-50.024,28.839L-49.994,28.82L-49.975,28.808L-49.955,28.795L-49.914,28.77L-49.881,28.749L-49.866,28.74L-49.852,28.731L-49.802,28.702L-49.765,28.68L-49.756,28.675L-49.747,28.67L-49.682,28.634L-49.648,28.615L-49.644,28.613C-49.607,28.593 -49.569,28.573 -49.531,28.553L-49.424,28.5L-49.409,28.492L-49.372,28.475L-49.313,28.447L-49.299,28.441L-49.286,28.435L-49.25,28.419L-49.201,28.398L-49.181,28.389L-49.162,28.381L-49.129,28.367L-49.088,28.35L-49.061,28.34L-49.037,28.33L-49.008,28.319L-48.974,28.305L-48.939,28.293L-48.91,28.282L-48.886,28.273L-48.858,28.263L-48.815,28.248L-48.782,28.236L-48.734,28.221C-48.7,28.209 -48.666,28.198 -48.631,28.188L-48.614,28.183C-48.579,28.172 -48.545,28.162 -48.51,28.152L-48.495,28.148C-48.459,28.138 -48.422,28.128 -48.386,28.119L-48.322,28.103L-48.26,28.088C-48.224,28.08 -48.187,28.072 -48.151,28.064L-48.134,28.06C-48.099,28.053 -48.063,28.046 -48.027,28.039L-48.018,28.037L-48.008,28.036C-47.972,28.029 -47.936,28.023 -47.9,28.017L-47.883,28.014C-47.846,28.008 -47.809,28.003 -47.771,27.998L-47.708,27.989L-47.641,27.981C-47.602,27.977 -47.564,27.973 -47.525,27.969L-47.51,27.968C-47.473,27.964 -47.435,27.961 -47.398,27.959L-47.388,27.958L-47.379,27.957C-47.342,27.955 -47.305,27.953 -47.267,27.951L-47.249,27.95C-47.211,27.948 -47.173,27.947 -47.134,27.946L-47.121,27.946C-47.081,27.945 -47.041,27.944 -47,27.944L-2,27.944C1.068,27.944 3.556,30.432 3.556,33.5C3.556,36.568 1.068,39.056 -2,39.056L-41.444,39.056L-41.444,56L-41.444,72.944L-2,72.944C1.068,72.944 3.556,75.432 3.556,78.5C3.556,81.568 1.068,84.056 -2,84.056Z"/>
    </g>
    <g transform="matrix(0.161133,0,0,0.161133,5.94336,9.40771)">
        <path d="M118.556,46C118.556,42.932 116.068,40.444 113,40.444L68,40.444C64.932,40.444 62.444,42.932 62.444,46L62.444,91C62.444,94.068 64.932,96.556 68,96.556L113,96.556C116.068,96.556 118.556,94.068 118.556,91L118.556,46ZM107.444,51.556L107.444,85.444C107.444,85.444 73.556,85.444 73.556,85.444C73.556,85.444 73.556,51.556 73.556,51.556L107.444,51.556Z"/>
    </g>
</svg>
