<?xml version="1.0" encoding="UTF-8"?>
<svg xmlns="http://www.w3.org/2000/svg" width="48" height="48" viewBox="0 0 36 36" color="currentColor"><g transform="translate(4 4)"><path d="M 0 0v 4h 4v -2a 2 2, 0, 0, 0, -2 -2" transform="rotate(-90,2,2)" fill="currentColor"/><rect x="4" y="0" width="4" height="4" transform="rotate(0,6,2)" fill="currentColor"/><rect x="8" y="0" width="4" height="4" transform="rotate(0,10,2)" fill="currentColor"/><rect x="12" y="0" width="4" height="4" transform="rotate(0,14,2)" fill="currentColor"/><rect x="16" y="0" width="4" height="4" transform="rotate(0,18,2)" fill="currentColor"/><rect x="20" y="0" width="4" height="4" transform="rotate(0,22,2)" fill="currentColor"/><path d="M 24 0v 4h 4v -2a 2 2, 0, 0, 0, -2 -2" transform="rotate(0,26,2)" fill="currentColor"/><rect x="0" y="4" width="4" height="4" transform="rotate(0,2,6)" fill="currentColor"/><rect x="24" y="4" width="4" height="4" transform="rotate(0,26,6)" fill="currentColor"/><rect x="0" y="8" width="4" height="4" transform="rotate(0,2,10)" fill="currentColor"/><rect x="24" y="8" width="4" height="4" transform="rotate(0,26,10)" fill="currentColor"/><rect x="0" y="12" width="4" height="4" transform="rotate(0,2,14)" fill="currentColor"/><rect x="24" y="12" width="4" height="4" transform="rotate(0,26,14)" fill="currentColor"/><rect x="0" y="16" width="4" height="4" transform="rotate(0,2,18)" fill="currentColor"/><rect x="24" y="16" width="4" height="4" transform="rotate(0,26,18)" fill="currentColor"/><rect x="0" y="20" width="4" height="4" transform="rotate(0,2,22)" fill="currentColor"/><rect x="24" y="20" width="4" height="4" transform="rotate(0,26,22)" fill="currentColor"/><path d="M 0 24v 4h 4v -2a 2 2, 0, 0, 0, -2 -2" transform="rotate(180,2,26)" fill="currentColor"/><rect x="4" y="24" width="4" height="4" transform="rotate(0,6,26)" fill="currentColor"/><rect x="8" y="24" width="4" height="4" transform="rotate(0,10,26)" fill="currentColor"/><rect x="12" y="24" width="4" height="4" transform="rotate(0,14,26)" fill="currentColor"/><rect x="16" y="24" width="4" height="4" transform="rotate(0,18,26)" fill="currentColor"/><rect x="20" y="24" width="4" height="4" transform="rotate(0,22,26)" fill="currentColor"/><path d="M 24 24v 4h 4v -2a 2 2, 0, 0, 0, -2 -2" transform="rotate(90,26,26)" fill="currentColor"/></g></svg>
