<?xml version="1.0" encoding="UTF-8"?>
<svg xmlns="http://www.w3.org/2000/svg" width="48" height="48" viewBox="0 0 36 36" color="currentColor"><g transform="translate(4 4)"><circle cx="2" cy="2" r="2" transform="rotate(0,2,2)" fill="currentColor"/><circle cx="6" cy="2" r="2" transform="rotate(0,6,2)" fill="currentColor"/><circle cx="10" cy="2" r="2" transform="rotate(0,10,2)" fill="currentColor"/><circle cx="14" cy="2" r="2" transform="rotate(0,14,2)" fill="currentColor"/><circle cx="18" cy="2" r="2" transform="rotate(0,18,2)" fill="currentColor"/><circle cx="22" cy="2" r="2" transform="rotate(0,22,2)" fill="currentColor"/><circle cx="26" cy="2" r="2" transform="rotate(0,26,2)" fill="currentColor"/><circle cx="2" cy="6" r="2" transform="rotate(0,2,6)" fill="currentColor"/><circle cx="26" cy="6" r="2" transform="rotate(0,26,6)" fill="currentColor"/><circle cx="2" cy="10" r="2" transform="rotate(0,2,10)" fill="currentColor"/><circle cx="26" cy="10" r="2" transform="rotate(0,26,10)" fill="currentColor"/><circle cx="2" cy="14" r="2" transform="rotate(0,2,14)" fill="currentColor"/><circle cx="26" cy="14" r="2" transform="rotate(0,26,14)" fill="currentColor"/><circle cx="2" cy="18" r="2" transform="rotate(0,2,18)" fill="currentColor"/><circle cx="26" cy="18" r="2" transform="rotate(0,26,18)" fill="currentColor"/><circle cx="2" cy="22" r="2" transform="rotate(0,2,22)" fill="currentColor"/><circle cx="26" cy="22" r="2" transform="rotate(0,26,22)" fill="currentColor"/><circle cx="2" cy="26" r="2" transform="rotate(0,2,26)" fill="currentColor"/><circle cx="6" cy="26" r="2" transform="rotate(0,6,26)" fill="currentColor"/><circle cx="10" cy="26" r="2" transform="rotate(0,10,26)" fill="currentColor"/><circle cx="14" cy="26" r="2" transform="rotate(0,14,26)" fill="currentColor"/><circle cx="18" cy="26" r="2" transform="rotate(0,18,26)" fill="currentColor"/><circle cx="22" cy="26" r="2" transform="rotate(0,22,26)" fill="currentColor"/><circle cx="26" cy="26" r="2" transform="rotate(0,26,26)" fill="currentColor"/></g></svg>
