<?xml version="1.0" encoding="UTF-8"?>
<svg xmlns="http://www.w3.org/2000/svg" width="48" height="48" viewBox="0 0 20 20" color="currentColor"><g transform="translate(-4 -4)"><path d="M 8 8v 4h 4v -2a 2 2, 0, 0, 0, -2 -2" transform="rotate(-90,10,10)" fill="currentColor"/><rect x="12" y="8" width="4" height="4" transform="rotate(0,14,10)" fill="currentColor"/><rect x="16" y="8" width="4" height="4" transform="rotate(0,18,10)" fill="currentColor"/><rect x="8" y="12" width="4" height="4" transform="rotate(0,10,14)" fill="currentColor"/><rect x="12" y="12" width="4" height="4" transform="rotate(0,14,14)" fill="currentColor"/><rect x="16" y="12" width="4" height="4" transform="rotate(0,18,14)" fill="currentColor"/><rect x="8" y="16" width="4" height="4" transform="rotate(0,10,18)" fill="currentColor"/><rect x="12" y="16" width="4" height="4" transform="rotate(0,14,18)" fill="currentColor"/><path d="M 16 16v 4h 4v -2a 2 2, 0, 0, 0, -2 -2" transform="rotate(90,18,18)" fill="currentColor"/></g></svg>
